<svg width="20" height="19" viewBox="0 0 20 19" fill="none" xmlns="http://www.w3.org/2000/svg">
<path d="M13.3333 16.5V14.8333C13.3333 13.9493 12.9821 13.1014 12.357 12.4763C11.7319 11.8512 10.884 11.5 9.99998 11.5H4.16665C3.28259 11.5 2.43474 11.8512 1.80962 12.4763C1.1845 13.1014 0.833313 13.9493 0.833313 14.8333V16.5M14.1666 8.16667L15.8333 9.83333L19.1666 6.5M10.4166 4.83333C10.4166 6.67428 8.92426 8.16667 7.08331 8.16667C5.24236 8.16667 3.74998 6.67428 3.74998 4.83333C3.74998 2.99238 5.24236 1.5 7.08331 1.5C8.92426 1.5 10.4166 2.99238 10.4166 4.83333Z" stroke="#F5F5F5" stroke-width="2" stroke-linecap="round" stroke-linejoin="round" shape-rendering="crispEdges"/>
</svg>
