<svg width="18" height="16" viewBox="0 0 18 16" fill="none" xmlns="http://www.w3.org/2000/svg">
<path d="M9.00002 15.5L7.79169 14.4167C6.38891 13.1528 5.22919 12.0625 4.31252 11.1458C3.39585 10.2292 2.66669 9.40972 2.12502 8.6875C1.58335 7.95138 1.20141 7.27777 0.979187 6.66666C0.770854 6.05555 0.666687 5.43055 0.666687 4.79166C0.666687 3.48611 1.10419 2.39583 1.97919 1.52083C2.85419 0.645828 3.94447 0.208328 5.25002 0.208328C5.97224 0.208328 6.65974 0.361106 7.31252 0.666662C7.9653 0.972217 8.5278 1.40277 9.00002 1.95833C9.47224 1.40277 10.0347 0.972217 10.6875 0.666662C11.3403 0.361106 12.0278 0.208328 12.75 0.208328C14.0556 0.208328 15.1459 0.645828 16.0209 1.52083C16.8959 2.39583 17.3334 3.48611 17.3334 4.79166C17.3334 5.43055 17.2222 6.05555 17 6.66666C16.7917 7.27777 16.4167 7.95138 15.875 8.6875C15.3334 9.40972 14.6042 10.2292 13.6875 11.1458C12.7709 12.0625 11.6111 13.1528 10.2084 14.4167L9.00002 15.5ZM9.00002 13.25C10.3334 12.0556 11.4306 11.0347 12.2917 10.1875C13.1528 9.32638 13.8334 8.58333 14.3334 7.95833C14.8334 7.31944 15.1806 6.75694 15.375 6.27083C15.5695 5.77083 15.6667 5.27777 15.6667 4.79166C15.6667 3.95833 15.3889 3.26388 14.8334 2.70833C14.2778 2.15277 13.5834 1.875 12.75 1.875C12.0972 1.875 11.4931 2.0625 10.9375 2.4375C10.382 2.79861 10 3.26388 9.79169 3.83333H8.20835C8.00002 3.26388 7.61808 2.79861 7.06252 2.4375C6.50697 2.0625 5.9028 1.875 5.25002 1.875C4.41669 1.875 3.72224 2.15277 3.16669 2.70833C2.61113 3.26388 2.33335 3.95833 2.33335 4.79166C2.33335 5.27777 2.43058 5.77083 2.62502 6.27083C2.81947 6.75694 3.16669 7.31944 3.66669 7.95833C4.16669 8.58333 4.84724 9.32638 5.70835 10.1875C6.56947 11.0347 7.66669 12.0556 9.00002 13.25Z" fill="currentColor"/>
</svg>
