<svg width="180" height="130" viewBox="0 0 180 130" fill="none" xmlns="http://www.w3.org/2000/svg">
<path d="M126.048 29.017C130.791 33.746 134.553 39.3618 137.12 45.5433C139.687 51.7249 141.009 58.3508 141.009 65.0424C141.009 71.734 139.687 78.36 137.12 84.5415C134.553 90.723 130.791 96.3389 126.048 101.068M53.9523 100.983C49.2095 96.254 45.447 90.6382 42.8799 84.4567C40.3128 78.2751 38.9915 71.6492 38.9915 64.9576C38.9915 58.266 40.3128 51.64 42.8799 45.4585C45.447 39.277 49.2095 33.6611 53.9523 28.9321M150.108 5C166.046 20.9147 175 42.4967 175 65C175 87.5033 166.046 109.085 150.108 125M29.8922 125C13.9537 109.085 5 87.5033 5 65C5 42.4967 13.9537 20.9147 29.8922 5M107.004 65C107.004 74.374 99.3909 81.9731 90 81.9731C80.6092 81.9731 72.9964 74.374 72.9964 65C72.9964 55.626 80.6092 48.0269 90 48.0269C99.3909 48.0269 107.004 55.626 107.004 65Z" stroke="white" stroke-width="10" stroke-linecap="round" stroke-linejoin="round"/>
</svg>
