<svg width="20" height="30" viewBox="0 0 20 30" fill="none" xmlns="http://www.w3.org/2000/svg">
<path d="M10 29.1667C9.66945 29.1667 9.38612 29.0722 9.15001 28.8833C8.9139 28.6944 8.73682 28.4465 8.61876 28.1396C8.17015 26.8174 7.60348 25.5778 6.91876 24.4208C6.25765 23.2639 5.32501 21.9062 4.12084 20.3479C2.91668 18.7896 1.93682 17.3021 1.18126 15.8854C0.449316 14.4687 0.0833435 12.7569 0.0833435 10.75C0.0833435 7.98749 1.03959 5.64999 2.95209 3.73749C4.8882 1.80138 7.23751 0.833328 10 0.833328C12.7625 0.833328 15.1 1.80138 17.0125 3.73749C18.9486 5.64999 19.9167 7.98749 19.9167 10.75C19.9167 12.8986 19.5035 14.6931 18.6771 16.1333C17.8743 17.55 16.9417 18.9549 15.8792 20.3479C14.6042 22.0479 13.6361 23.4646 12.975 24.5979C12.3375 25.7076 11.8063 26.8882 11.3813 28.1396C11.2632 28.4701 11.0743 28.7299 10.8146 28.9187C10.5785 29.084 10.307 29.1667 10 29.1667ZM10 14.2917C10.9917 14.2917 11.8299 13.9493 12.5146 13.2646C13.1993 12.5799 13.5417 11.7417 13.5417 10.75C13.5417 9.75833 13.1993 8.92013 12.5146 8.23541C11.8299 7.55069 10.9917 7.20833 10 7.20833C9.00834 7.20833 8.17015 7.55069 7.48543 8.23541C6.8007 8.92013 6.45834 9.75833 6.45834 10.75C6.45834 11.7417 6.8007 12.5799 7.48543 13.2646C8.17015 13.9493 9.00834 14.2917 10 14.2917Z" fill="#E6E6E6"/>
</svg>
