<svg width="33" height="33" viewBox="0 0 33 33" fill="none" xmlns="http://www.w3.org/2000/svg">
<path d="M12.0313 32.75L11.3813 27.55C11.0292 27.4146 10.6974 27.2521 10.3859 27.0625C10.0745 26.8729 9.7698 26.6698 9.47189 26.4531L4.63751 28.4844L0.168762 20.7656L4.35314 17.5969C4.32605 17.4073 4.31251 17.2245 4.31251 17.0484V15.9516C4.31251 15.7755 4.32605 15.5927 4.35314 15.4031L0.168762 12.2344L4.63751 4.51562L9.47189 6.54688C9.7698 6.33021 10.0813 6.12708 10.4063 5.9375C10.7313 5.74792 11.0563 5.58542 11.3813 5.45L12.0313 0.25H20.9688L21.6188 5.45C21.9708 5.58542 22.3026 5.74792 22.6141 5.9375C22.9255 6.12708 23.2302 6.33021 23.5281 6.54688L28.3625 4.51562L32.8313 12.2344L28.6469 15.4031C28.674 15.5927 28.6875 15.7755 28.6875 15.9516V17.0484C28.6875 17.2245 28.6604 17.4073 28.6063 17.5969L32.7906 20.7656L28.3219 28.4844L23.5281 26.4531C23.2302 26.6698 22.9188 26.8729 22.5938 27.0625C22.2688 27.2521 21.9438 27.4146 21.6188 27.55L20.9688 32.75H12.0313ZM14.875 29.5H18.0844L18.6531 25.1938C19.4927 24.9771 20.2714 24.6589 20.9891 24.2391C21.7068 23.8193 22.3636 23.3115 22.9594 22.7156L26.9813 24.3813L28.5656 21.6188L25.0719 18.9781C25.2073 18.599 25.3021 18.1995 25.3563 17.7797C25.4104 17.3599 25.4375 16.9333 25.4375 16.5C25.4375 16.0667 25.4104 15.6401 25.3563 15.2203C25.3021 14.8005 25.2073 14.401 25.0719 14.0219L28.5656 11.3812L26.9813 8.61875L22.9594 10.325C22.3636 9.70208 21.7068 9.18073 20.9891 8.76094C20.2714 8.34115 19.4927 8.02292 18.6531 7.80625L18.125 3.5H14.9156L14.3469 7.80625C13.5073 8.02292 12.7287 8.34115 12.0109 8.76094C11.2932 9.18073 10.6365 9.68854 10.0406 10.2844L6.01876 8.61875L4.43439 11.3812L7.92814 13.9812C7.79272 14.3875 7.69793 14.7937 7.64376 15.2C7.58959 15.6062 7.56251 16.0396 7.56251 16.5C7.56251 16.9333 7.58959 17.3531 7.64376 17.7594C7.69793 18.1656 7.79272 18.5719 7.92814 18.9781L4.43439 21.6188L6.01876 24.3813L10.0406 22.675C10.6365 23.2979 11.2932 23.8193 12.0109 24.2391C12.7287 24.6589 13.5073 24.9771 14.3469 25.1938L14.875 29.5ZM16.5813 22.1875C18.1521 22.1875 19.4927 21.6323 20.6031 20.5219C21.7136 19.4115 22.2688 18.0708 22.2688 16.5C22.2688 14.9292 21.7136 13.5885 20.6031 12.4781C19.4927 11.3677 18.1521 10.8125 16.5813 10.8125C14.9833 10.8125 13.6359 11.3677 12.5391 12.4781C11.4422 13.5885 10.8938 14.9292 10.8938 16.5C10.8938 18.0708 11.4422 19.4115 12.5391 20.5219C13.6359 21.6323 14.9833 22.1875 16.5813 22.1875Z" fill="black"/>
</svg>
